<svg xmlns="http://www.w3.org/2000/svg" width="80" height="80" viewBox="0 0 80 80">
  <defs>
    <style>
      .cls-1 {
        fill: none;
      }

      .cls-2 {
        fill: #ebeb1a;
      }
    </style>
  </defs>
  <g id="Sun" transform="translate(-435 -128)">
    <rect id="Boundary" class="cls-1" width="80" height="80" transform="translate(435 128)"/>
    <path id="Icon" class="cls-2" d="M9.345,59.7l4.615,4.636,5.891-5.885L15.2,53.777M33.727,72.55h6.545v-9.7H33.727M37,16.824A19.726,19.726,0,1,0,56.636,36.55,19.681,19.681,0,0,0,37,16.824M63.182,39.838H73V33.262H63.182M54.149,58.446l5.891,5.885L64.655,59.7,58.8,53.777M64.655,13.4,60.04,8.769l-5.891,5.885L58.8,19.323M40.273.55H33.727v9.7h6.545M10.818,33.262H1v6.575h9.818m9.033-25.184L13.96,8.769,9.345,13.4,15.2,19.323Z" transform="translate(438 131.45)"/>
  </g>
</svg>
